<svg viewBox="0 0 1600 1100" xmlns="http://www.w3.org/2000/svg" font-family="'Inter','Helvetica Neue',Arial,sans-serif">
  <defs>
    <!-- backdrop -->
    <linearGradient id="bg" x1="0" y1="0" x2="1" y2="1">
      <stop offset="0" stop-color="#EEF0FB"/>
      <stop offset="0.55" stop-color="#F5F6FC"/>
      <stop offset="1" stop-color="#EAEAF7"/>
    </linearGradient>
    <!-- heat legend gradient -->
    <linearGradient id="heat" x1="0" y1="0" x2="1" y2="0">
      <stop offset="0" stop-color="#FFE08A"/>
      <stop offset="0.5" stop-color="#FF9E5B"/>
      <stop offset="1" stop-color="#FF5C5C"/>
    </linearGradient>
    <!-- hero band -->
    <linearGradient id="hero" x1="0" y1="0" x2="0" y2="1">
      <stop offset="0" stop-color="#DEE1F6"/>
      <stop offset="1" stop-color="#E9EBF8"/>
    </linearGradient>
    <!-- logo gradient -->
    <linearGradient id="logo" x1="0" y1="0" x2="1" y2="1">
      <stop offset="0" stop-color="#6D75E8"/>
      <stop offset="1" stop-color="#4F80D9"/>
    </linearGradient>
    <!-- heat blobs -->
    <radialGradient id="blobHot" cx="50%" cy="50%" r="50%">
      <stop offset="0" stop-color="#FF5C5C" stop-opacity="0.62"/>
      <stop offset="0.45" stop-color="#FF8A5B" stop-opacity="0.42"/>
      <stop offset="1" stop-color="#FFE08A" stop-opacity="0"/>
    </radialGradient>
    <radialGradient id="blobWarm" cx="50%" cy="50%" r="50%">
      <stop offset="0" stop-color="#FF9E5B" stop-opacity="0.5"/>
      <stop offset="0.5" stop-color="#FFC178" stop-opacity="0.3"/>
      <stop offset="1" stop-color="#FFE08A" stop-opacity="0"/>
    </radialGradient>
    <radialGradient id="blobCool" cx="50%" cy="50%" r="50%">
      <stop offset="0" stop-color="#FFD36B" stop-opacity="0.42"/>
      <stop offset="1" stop-color="#FFE08A" stop-opacity="0"/>
    </radialGradient>

    <filter id="winShadow" x="-10%" y="-10%" width="120%" height="120%">
      <feDropShadow dx="0" dy="24" stdDeviation="34" flood-color="#2A2F5E" flood-opacity="0.16"/>
    </filter>
    <filter id="cardShadow" x="-30%" y="-30%" width="160%" height="160%">
      <feDropShadow dx="0" dy="10" stdDeviation="18" flood-color="#1C2440" flood-opacity="0.18"/>
    </filter>
    <filter id="softShadow" x="-30%" y="-30%" width="160%" height="160%">
      <feDropShadow dx="0" dy="4" stdDeviation="8" flood-color="#1C2440" flood-opacity="0.08"/>
    </filter>

    <clipPath id="canvasClip"><rect x="486" y="466" width="766" height="500" rx="10"/></clipPath>
    <clipPath id="winClip"><rect x="40" y="40" width="1520" height="1020" rx="22"/></clipPath>
  </defs>

  <!-- ===== backdrop ===== -->
  <rect width="1600" height="1100" fill="url(#bg)"/>

  <!-- ===== app window ===== -->
  <g filter="url(#winShadow)">
    <rect x="40" y="40" width="1520" height="1020" rx="22" fill="#FFFFFF"/>
  </g>

  <g clip-path="url(#winClip)">
    <!-- window top chrome -->
    <rect x="40" y="40" width="1520" height="46" fill="#F3F4FA"/>
    <circle cx="74" cy="63" r="6" fill="#E8838A"/>
    <circle cx="96" cy="63" r="6" fill="#F2C66B"/>
    <circle cx="118" cy="63" r="6" fill="#8FCB9B"/>

    <!-- ============ LEFT NAV ============ -->
    <rect x="40" y="86" width="178" height="974" fill="#FAFBFE"/>
    <line x1="218" y1="86" x2="218" y2="1060" stroke="#ECEEF6" stroke-width="1.5"/>

    <!-- UXCAM logo -->
    <g transform="translate(66,116)">
      <text x="0" y="20" font-size="26" font-weight="800" letter-spacing="1.5" fill="#161E35">U<tspan fill="#6D75E8">X</tspan>CAM</text>
    </g>

    <!-- org switcher (placeholder) -->
    <rect x="62" y="160" width="134" height="44" rx="10" fill="#FFFFFF" stroke="#E5E8F2" stroke-width="1.5"/>
    <rect x="74" y="172" width="20" height="20" rx="5" fill="#9A2B2F"/>
    <rect x="104" y="176" width="58" height="6" rx="3" fill="#C9CEDE"/>
    <rect x="104" y="187" width="36" height="5" rx="2.5" fill="#DCE0EC"/>

    <!-- nav items: placeholders + one labeled selected -->
    <!-- generic items -->
    <g fill="#C9CEDE">
      <rect x="64" y="232" width="18" height="18" rx="4"/><rect x="94" y="237" width="70" height="8" rx="4"/>
      <rect x="64" y="276" width="18" height="18" rx="4"/><rect x="94" y="281" width="84" height="8" rx="4"/>
      <rect x="64" y="320" width="18" height="18" rx="4"/><rect x="94" y="325" width="58" height="8" rx="4"/>
      <rect x="64" y="364" width="18" height="18" rx="4"/><rect x="94" y="369" width="62" height="8" rx="4"/>
      <rect x="64" y="408" width="18" height="18" rx="4"/><rect x="94" y="413" width="76" height="8" rx="4"/>
      <rect x="64" y="452" width="18" height="18" rx="4"/><rect x="94" y="457" width="66" height="8" rx="4"/>
      <rect x="64" y="496" width="18" height="18" rx="4"/><rect x="94" y="501" width="52" height="8" rx="4"/>
      <rect x="64" y="540" width="18" height="18" rx="4"/><rect x="94" y="545" width="60" height="8" rx="4"/>
      <rect x="64" y="584" width="18" height="18" rx="4"/><rect x="94" y="589" width="62" height="8" rx="4"/>
    </g>

    <!-- selected: Heatmap -->
    <rect x="52" y="628" width="154" height="40" rx="10" fill="#EBEDFB"/>
    <rect x="64" y="640" width="18" height="16" rx="3" fill="#6D75E8"/>
    <text x="94" y="654" font-size="15" font-weight="700" fill="#3A3FAE">Heatmap</text>

    <g fill="#C9CEDE">
      <rect x="64" y="700" width="18" height="18" rx="4"/><rect x="94" y="705" width="48" height="8" rx="4"/>
      <rect x="64" y="744" width="18" height="18" rx="4"/><rect x="94" y="749" width="44" height="8" rx="4"/>
      <rect x="64" y="788" width="18" height="18" rx="4"/><rect x="94" y="793" width="40" height="8" rx="4"/>
    </g>

    <!-- user chip placeholder -->
    <rect x="62" y="996" width="134" height="44" rx="10" fill="#FFFFFF" stroke="#E5E8F2" stroke-width="1.5"/>
    <circle cx="84" cy="1018" r="11" fill="#D8DCEA"/>
    <rect x="104" y="1010" width="58" height="6" rx="3" fill="#C9CEDE"/>
    <rect x="104" y="1021" width="38" height="5" rx="2.5" fill="#DCE0EC"/>

    <!-- ============ SAVED LIST COLUMN ============ -->
    <line x1="452" y1="86" x2="452" y2="1060" stroke="#ECEEF6" stroke-width="1.5"/>
    <!-- search -->
    <rect x="238" y="118" width="196" height="40" rx="10" fill="#F4F5FA" stroke="#E5E8F2" stroke-width="1.5"/>
    <circle cx="262" cy="138" r="6.5" fill="none" stroke="#A8AEC4" stroke-width="2"/>
    <line x1="266" y1="142" x2="272" y2="148" stroke="#A8AEC4" stroke-width="2" stroke-linecap="round"/>
    <rect x="282" y="134" width="92" height="8" rx="4" fill="#D2D7E4"/>
    <!-- create heatmap btn -->
    <rect x="238" y="170" width="196" height="40" rx="10" fill="#FFFFFF" stroke="#6D75E8" stroke-width="1.5"/>
    <circle cx="296" cy="190" r="7" fill="none" stroke="#6D75E8" stroke-width="2"/>
    <line x1="296" y1="186" x2="296" y2="194" stroke="#6D75E8" stroke-width="2" stroke-linecap="round"/>
    <line x1="292" y1="190" x2="300" y2="190" stroke="#6D75E8" stroke-width="2" stroke-linecap="round"/>
    <text x="312" y="195" font-size="13" font-weight="600" fill="#6D75E8">Create heatmap</text>

    <text x="238" y="250" font-size="13" font-weight="700" fill="#7A8099" letter-spacing="0.4">SAVED HEATMAPS</text>
    <!-- selected list item -->
    <rect x="230" y="268" width="212" height="40" rx="9" fill="#F2F3FB"/>
    <rect x="246" y="284" width="150" height="8" rx="4" fill="#9AA0BC"/>
    <!-- other items placeholders -->
    <g fill="#D2D7E4">
      <rect x="246" y="332" width="96" height="8" rx="4"/>
      <rect x="246" y="376" width="118" height="8" rx="4"/>
      <rect x="246" y="420" width="142" height="8" rx="4"/>
      <rect x="246" y="464" width="126" height="8" rx="4"/>
    </g>

    <!-- ============ MAIN CONTENT ============ -->
    <!-- title row -->
    <text x="486" y="128" font-size="24" font-weight="800" fill="#161E35">Product page heatmap</text>
    <circle cx="1150" cy="120" r="5" fill="#8FCB9B"/>
    <text x="1162" y="125" font-size="13" font-weight="600" fill="#7A8099">Saved</text>

    <!-- select screen/page -->
    <text x="486" y="178" font-size="13" font-weight="700" fill="#7A8099">Select screen/page</text>
    <rect x="486" y="190" width="120" height="38" rx="9" fill="#F4F5FA" stroke="#E5E8F2" stroke-width="1.5"/>
    <text x="502" y="214" font-size="13" fill="#6B7290">Screen/Page</text>
    <rect x="616" y="190" width="74" height="38" rx="9" fill="#F4F5FA" stroke="#E5E8F2" stroke-width="1.5"/>
    <text x="632" y="214" font-size="13" fill="#6B7290">is</text>
    <path d="M676 207 l5 6 l5 -6" fill="none" stroke="#A8AEC4" stroke-width="2" stroke-linecap="round"/>
    <rect x="700" y="190" width="468" height="38" rx="9" fill="#FFFFFF" stroke="#6D75E8" stroke-width="1.5"/>
    <text x="718" y="214" font-size="13" font-weight="600" fill="#2A2F5E">Product details</text>

    <!-- filter chips -->
    <rect x="486" y="246" width="112" height="36" rx="9" fill="#F4F5FA" stroke="#E5E8F2" stroke-width="1.5"/>
    <text x="516" y="269" font-size="12.5" font-weight="600" fill="#6D75E8">+ Add filter</text>
    <rect x="610" y="246" width="146" height="36" rx="9" fill="#EBEDFB" stroke="#C5CAF3" stroke-width="1.5"/>
    <text x="630" y="269" font-size="12.5" font-weight="600" fill="#4A4FBE">1 Filter applied</text>
    <rect x="768" y="246" width="138" height="36" rx="9" fill="#F4F5FA" stroke="#E5E8F2" stroke-width="1.5"/>
    <text x="790" y="269" font-size="12.5" font-weight="600" fill="#6D75E8">+ Add segment</text>

    <!-- device + view controls -->
    <text x="486" y="320" font-size="12" font-weight="700" fill="#7A8099">SELECT DEVICE TYPE</text>
    <rect x="486" y="332" width="56" height="40" rx="9" fill="#6D75E8"/>
    <rect x="500" y="346" width="22" height="14" rx="2" fill="#FFFFFF"/>
    <text x="528" y="357" font-size="11" font-weight="700" fill="#FFFFFF">0</text>
    <rect x="550" y="332" width="56" height="40" rx="9" fill="#F4F5FA" stroke="#E5E8F2" stroke-width="1.5"/>
    <rect x="566" y="344" width="16" height="18" rx="2" fill="#C9CEDE"/>
    <text x="590" y="357" font-size="11" font-weight="700" fill="#9AA0BC">0</text>
    <rect x="614" y="332" width="56" height="40" rx="9" fill="#F4F5FA" stroke="#E5E8F2" stroke-width="1.5"/>
    <rect x="632" y="344" width="11" height="18" rx="2" fill="#C9CEDE"/>
    <text x="652" y="357" font-size="11" font-weight="700" fill="#9AA0BC">0</text>

    <text x="710" y="320" font-size="12" font-weight="700" fill="#7A8099">VIEW</text>
    <rect x="710" y="332" width="130" height="40" rx="9" fill="#FFFFFF" stroke="#E5E8F2" stroke-width="1.5"/>
    <text x="726" y="357" font-size="13" font-weight="600" fill="#2A2F5E">Single Clicks</text>
    <path d="M820 350 l5 6 l5 -6" fill="none" stroke="#A8AEC4" stroke-width="2" stroke-linecap="round"/>
    <text x="852" y="357" font-size="13" fill="#6B7290">Based on top</text>
    <rect x="942" y="332" width="60" height="40" rx="9" fill="#F4F5FA" stroke="#E5E8F2" stroke-width="1.5"/>
    <text x="958" y="357" font-size="13" font-weight="600" fill="#2A2F5E">50</text>
    <text x="1012" y="357" font-size="13" fill="#6B7290">elements</text>

    <rect x="1100" y="332" width="120" height="40" rx="9" fill="#F4F5FA" stroke="#E5E8F2" stroke-width="1.5"/>
    <text x="1160" y="357" font-size="11.5" font-weight="600" fill="#6B7290" text-anchor="middle">Get screenshot</text>

    <!-- ============ HEATMAP CANVAS (the screenshot being analysed) ============ -->
    <rect x="486" y="466" width="766" height="500" rx="10" fill="#F7F8FC" stroke="#E5E8F2" stroke-width="1.5"/>
    <g clip-path="url(#canvasClip)">
      <!-- site header -->
      <rect x="486" y="466" width="766" height="40" fill="#F2C9C4"/>
      <rect x="512" y="479" width="64" height="14" rx="3" fill="#C76B63"/>
      <rect x="700" y="478" width="360" height="16" rx="8" fill="#F8DFDB"/>
      <!-- sub-categories bar -->
      <rect x="486" y="506" width="766" height="22" fill="#E7B7B0"/>
      <rect x="512" y="512" width="150" height="9" rx="4.5" fill="#D49A92"/>
      <!-- hero -->
      <rect x="486" y="528" width="766" height="78" fill="url(#hero)"/>
      <text x="869" y="566" font-size="18" font-weight="800" fill="#3A4060" text-anchor="middle">OUR SHOP</text>
      <rect x="828" y="582" width="82" height="7" rx="3.5" fill="#C2C7DE"/>

      <!-- left filter column -->
      <rect x="498" y="618" width="116" height="300" rx="6" fill="#FBEDE9"/>
      <g fill="#E2B3AB">
        <rect x="510" y="632" width="70" height="9" rx="4.5"/>
        <rect x="510" y="654" width="14" height="11" rx="2"/><rect x="532" y="656" width="56" height="7" rx="3.5"/>
        <rect x="510" y="674" width="14" height="11" rx="2"/><rect x="532" y="676" width="44" height="7" rx="3.5"/>
        <rect x="510" y="694" width="14" height="11" rx="2"/><rect x="532" y="696" width="60" height="7" rx="3.5"/>
        <rect x="510" y="730" width="70" height="9" rx="4.5"/>
        <rect x="510" y="752" width="14" height="11" rx="2"/><rect x="532" y="754" width="50" height="7" rx="3.5"/>
        <rect x="510" y="772" width="14" height="11" rx="2"/><rect x="532" y="774" width="42" height="7" rx="3.5"/>
        <rect x="510" y="808" width="70" height="9" rx="4.5"/>
        <rect x="510" y="830" width="14" height="11" rx="2"/><rect x="532" y="832" width="48" height="7" rx="3.5"/>
        <rect x="510" y="850" width="14" height="11" rx="2"/><rect x="532" y="852" width="36" height="7" rx="3.5"/>
      </g>

      <!-- product grid: 4 cols x 3 rows placeholder cards -->
      <g>
        <!-- row 1 -->
        <g><rect x="626" y="616" width="142" height="92" rx="6" fill="#EDEFF6"/><rect x="640" y="630" width="70" height="46" rx="4" fill="#DCE0EC"/><rect x="640" y="684" width="60" height="6" rx="3" fill="#CDD2E2"/><rect x="640" y="694" width="40" height="5" rx="2.5" fill="#DCE0EC"/></g>
        <g><rect x="780" y="616" width="142" height="92" rx="6" fill="#EDEFF6"/><rect x="794" y="630" width="70" height="46" rx="4" fill="#DCE0EC"/><rect x="794" y="684" width="60" height="6" rx="3" fill="#CDD2E2"/><rect x="794" y="694" width="40" height="5" rx="2.5" fill="#DCE0EC"/></g>
        <g><rect x="934" y="616" width="142" height="92" rx="6" fill="#EDEFF6"/><rect x="948" y="630" width="70" height="46" rx="4" fill="#DCE0EC"/><rect x="948" y="684" width="60" height="6" rx="3" fill="#CDD2E2"/><rect x="948" y="694" width="40" height="5" rx="2.5" fill="#DCE0EC"/></g>
        <g><rect x="1088" y="616" width="142" height="92" rx="6" fill="#EDEFF6"/><rect x="1102" y="630" width="70" height="46" rx="4" fill="#DCE0EC"/><rect x="1102" y="684" width="60" height="6" rx="3" fill="#CDD2E2"/><rect x="1102" y="694" width="40" height="5" rx="2.5" fill="#DCE0EC"/></g>
        <!-- row 2 -->
        <g><rect x="626" y="720" width="142" height="92" rx="6" fill="#EDEFF6"/><rect x="640" y="734" width="70" height="46" rx="4" fill="#DCE0EC"/><rect x="640" y="788" width="60" height="6" rx="3" fill="#CDD2E2"/><rect x="640" y="798" width="40" height="5" rx="2.5" fill="#DCE0EC"/></g>
        <g><rect x="780" y="720" width="142" height="92" rx="6" fill="#EDEFF6"/><rect x="794" y="734" width="70" height="46" rx="4" fill="#DCE0EC"/><rect x="794" y="788" width="60" height="6" rx="3" fill="#CDD2E2"/><rect x="794" y="798" width="40" height="5" rx="2.5" fill="#DCE0EC"/></g>
        <g><rect x="934" y="720" width="142" height="92" rx="6" fill="#EDEFF6"/><rect x="948" y="734" width="70" height="46" rx="4" fill="#DCE0EC"/><rect x="948" y="788" width="60" height="6" rx="3" fill="#CDD2E2"/><rect x="948" y="798" width="40" height="5" rx="2.5" fill="#DCE0EC"/></g>
        <g><rect x="1088" y="720" width="142" height="92" rx="6" fill="#EDEFF6"/><rect x="1102" y="734" width="70" height="46" rx="4" fill="#DCE0EC"/><rect x="1102" y="788" width="60" height="6" rx="3" fill="#CDD2E2"/><rect x="1102" y="798" width="40" height="5" rx="2.5" fill="#DCE0EC"/></g>
        <!-- row 3 -->
        <g><rect x="626" y="824" width="142" height="92" rx="6" fill="#EDEFF6"/><rect x="640" y="838" width="70" height="46" rx="4" fill="#DCE0EC"/><rect x="640" y="892" width="60" height="6" rx="3" fill="#CDD2E2"/><rect x="640" y="902" width="40" height="5" rx="2.5" fill="#DCE0EC"/></g>
        <g><rect x="780" y="824" width="142" height="92" rx="6" fill="#EDEFF6"/><rect x="794" y="838" width="70" height="46" rx="4" fill="#DCE0EC"/><rect x="794" y="892" width="60" height="6" rx="3" fill="#CDD2E2"/><rect x="794" y="902" width="40" height="5" rx="2.5" fill="#DCE0EC"/></g>
        <g><rect x="934" y="824" width="142" height="92" rx="6" fill="#EDEFF6"/><rect x="948" y="838" width="70" height="46" rx="4" fill="#DCE0EC"/><rect x="948" y="892" width="60" height="6" rx="3" fill="#CDD2E2"/><rect x="948" y="902" width="40" height="5" rx="2.5" fill="#DCE0EC"/></g>
        <g><rect x="1088" y="824" width="142" height="92" rx="6" fill="#EDEFF6"/><rect x="1102" y="838" width="70" height="46" rx="4" fill="#DCE0EC"/><rect x="1102" y="892" width="60" height="6" rx="3" fill="#CDD2E2"/><rect x="1102" y="902" width="40" height="5" rx="2.5" fill="#DCE0EC"/></g>
      </g>

      <!-- ===== HEAT OVERLAY (the signature) ===== -->
      <g style="mix-blend-mode:multiply">
        <ellipse cx="560" cy="690" rx="120" ry="120" fill="url(#blobHot)"/>
        <ellipse cx="700" cy="662" rx="105" ry="95" fill="url(#blobWarm)"/>
        <ellipse cx="852" cy="660" rx="95" ry="85" fill="url(#blobCool)"/>
        <ellipse cx="700" cy="868" rx="135" ry="115" fill="url(#blobHot)"/>
        <ellipse cx="1000" cy="770" rx="120" ry="110" fill="url(#blobWarm)"/>
        <ellipse cx="1160" cy="660" rx="90" ry="80" fill="url(#blobCool)"/>
        <ellipse cx="1160" cy="880" rx="100" ry="95" fill="url(#blobWarm)"/>
      </g>

      <!-- ranking badges -->
      <g font-size="11" font-weight="800" fill="#FFFFFF" text-anchor="middle">
        <rect x="744" y="620" width="20" height="20" rx="4" fill="#FF8A4B"/><text x="754" y="634">15</text>
        <rect x="1052" y="620" width="20" height="20" rx="4" fill="#FFC04B"/><text x="1062" y="634">10</text>
        <rect x="744" y="828" width="20" height="20" rx="4" fill="#FF6B5B"/><text x="754" y="842">12</text>
      </g>

      <!-- pagination dots -->
      <g>
        <rect x="826" y="932" width="20" height="20" rx="4" fill="#FFE6A8"/><text x="836" y="946" font-size="11" font-weight="700" fill="#9A7A2A" text-anchor="middle">1</text>
        <rect x="850" y="932" width="20" height="20" rx="4" fill="#EDEFF6"/>
        <rect x="874" y="932" width="20" height="20" rx="4" fill="#EDEFF6"/>
      </g>
    </g>

    <!-- legend bar over canvas bottom -->
    <rect x="996" y="932" width="180" height="9" rx="4.5" fill="url(#heat)"/>
    <text x="940" y="939" font-size="11" fill="#7A8099" text-anchor="end">Least</text>
    <text x="1186" y="939" font-size="11" fill="#7A8099">Most</text>
    <rect x="1030" y="954" width="146" height="22" rx="11" fill="#6D75E8"/>
    <text x="1103" y="969" font-size="11" font-weight="700" fill="#FFFFFF" text-anchor="middle">Element ranking: On</text>

    <!-- ===== ELEMENT-CLICK TOOLTIP (focal detail) ===== -->
    <g filter="url(#cardShadow)">
      <rect x="838" y="700" width="306" height="216" rx="14" fill="#FFFFFF"/>
    </g>
    <text x="862" y="736" font-size="20" font-weight="800" fill="#161E35">20 Clicks</text>
    <text x="862" y="765" font-size="14" font-weight="700" fill="#2A2F5E">20% click rate</text>
    <text x="862" y="782" font-size="11" fill="#8A90A6">out of 455 clicks</text>
    <text x="862" y="808" font-size="14" font-weight="700" fill="#2A2F5E">67% click through rate</text>
    <text x="862" y="825" font-size="11" fill="#8A90A6">out of 3536 screen visits</text>
    <line x1="862" y1="842" x2="1120" y2="842" stroke="#ECEEF6" stroke-width="1.5"/>
    <text x="862" y="864" font-size="12.5" font-weight="600" fill="#6B7290">Element details</text>
    <path d="M998 859 l5 6 l5 -6" fill="none" stroke="#A8AEC4" stroke-width="2" stroke-linecap="round"/>
    <rect x="862" y="876" width="150" height="24" rx="6" fill="none" stroke="#6D75E8" stroke-width="1.5"/>
    <rect x="876" y="885" width="14" height="9" rx="2" fill="#6D75E8"/>
    <text x="898" y="892" font-size="12" font-weight="700" fill="#6D75E8">Watch sessions</text>

    <!-- ============ RIGHT METRICS PANEL ============ -->
    <line x1="1268" y1="86" x2="1268" y2="1060" stroke="#ECEEF6" stroke-width="1.5"/>
    <text x="1296" y="120" font-size="17" font-weight="800" fill="#161E35">Screen Metrics</text>

    <!-- metric rows: label + value -->
    <g font-size="13.5">
      <text x="1296" y="166" fill="#6B7290">Screen visits</text><text x="1532" y="166" font-weight="700" fill="#161E35" text-anchor="end">600</text>
      <text x="1296" y="200" fill="#6B7290">Exits</text><text x="1532" y="200" font-weight="700" fill="#161E35" text-anchor="end">40</text>
      <text x="1296" y="234" fill="#6B7290">Avg. time</text><rect x="1500" y="225" width="32" height="8" rx="4" fill="#D2D7E4"/>
      <text x="1296" y="268" fill="#6B7290">Dead clicks</text><text x="1532" y="268" font-weight="700" fill="#161E35" text-anchor="end">40</text>
      <text x="1296" y="302" fill="#6B7290">Rage taps</text><text x="1532" y="302" font-weight="700" fill="#161E35" text-anchor="end">40</text>
      <text x="1296" y="336" fill="#6B7290">Refresh events</text><text x="1532" y="336" font-weight="700" fill="#161E35" text-anchor="end">40</text>
    </g>

    <line x1="1296" y1="362" x2="1532" y2="362" stroke="#ECEEF6" stroke-width="1.5"/>
    <text x="1296" y="400" font-size="14" font-weight="800" fill="#161E35">Top next screens</text>
    <g>
      <text x="1296" y="430" font-size="12.5" fill="#6B7290">/cart/</text><text x="1532" y="430" font-size="12" fill="#9AA0BC" text-anchor="end">30</text>
      <rect x="1296" y="438" width="236" height="6" rx="3" fill="#EDEFF6"/><rect x="1296" y="438" width="170" height="6" rx="3" fill="#6D75E8"/>
      <text x="1296" y="466" font-size="12.5" fill="#6B7290">/category/</text><text x="1532" y="466" font-size="12" fill="#9AA0BC" text-anchor="end">30</text>
      <rect x="1296" y="474" width="236" height="6" rx="3" fill="#EDEFF6"/><rect x="1296" y="474" width="120" height="6" rx="3" fill="#6D75E8"/>
      <text x="1296" y="502" font-size="12.5" fill="#6B7290">/register-successful/</text><text x="1532" y="502" font-size="12" fill="#9AA0BC" text-anchor="end">30</text>
      <rect x="1296" y="510" width="236" height="6" rx="3" fill="#EDEFF6"/><rect x="1296" y="510" width="92" height="6" rx="3" fill="#6D75E8"/>
    </g>

    <text x="1296" y="556" font-size="14" font-weight="800" fill="#161E35">Top previous screens</text>
    <g>
      <text x="1296" y="586" font-size="12.5" fill="#6B7290">/cart/</text>
      <rect x="1296" y="594" width="236" height="6" rx="3" fill="#EDEFF6"/><rect x="1296" y="594" width="150" height="6" rx="3" fill="#4F80D9"/>
      <text x="1296" y="622" font-size="12.5" fill="#6B7290">/register-successful/</text>
      <rect x="1296" y="630" width="236" height="6" rx="3" fill="#EDEFF6"/><rect x="1296" y="630" width="110" height="6" rx="3" fill="#4F80D9"/>
      <text x="1296" y="658" font-size="12.5" fill="#6B7290">/category/</text>
      <rect x="1296" y="666" width="236" height="6" rx="3" fill="#EDEFF6"/><rect x="1296" y="666" width="86" height="6" rx="3" fill="#4F80D9"/>
    </g>

    <rect x="1296" y="708" width="236" height="42" rx="10" fill="#FFFFFF" stroke="#6D75E8" stroke-width="1.5"/>
    <text x="1414" y="734" font-size="13" font-weight="700" fill="#6D75E8" text-anchor="middle">Analyse popular journeys</text>
  </g>
</svg>
